# xmcd
#
# Track frame offsets:
#	150
#	18219
#	25395
#	32386
#	40033
#	45181
#	50541
#	56798
#	62926
#	69061
#	73803
#	76831
#	80929
#	88147
#	91507
#	98099
#	104331
#	105506
#	111253
#	112837
#
# Disc length: 1568 seconds
#
# Revision: 1
# Processed by: cddbd v1.5.2PL0 Copyright (c) Steve Scherf et al.
# Submitted via: audiograbber 1.83.01
#
DISCID=f3061e14
DTITLE=Bushwick Bill - Testimony of Redemption (Promo CD)
DYEAR=2008
DGENRE=Rap
TTITLE0=Testimony of Redemption
TTITLE1=Takin' it back (Snippet)
TTITLE2=Spiritual Warfare (Snippet)
TTITLE3=All the Pain (Snippet)
TTITLE4=Guardian Angel (Snippet)
TTITLE5=God Side is the Best Side (Snippet)
TTITLE6=Praise God for you (Snippet)
TTITLE7=Going to the River (Snippet)
TTITLE8=Life is a Beautiful Struggle (Snippet)
TTITLE9=Calling to you (Snippet)
TTITLE10=Renewed Mind (Snippet)
TTITLE11=Praise of a Good Woman (Snippet)
TTITLE12=Thorn in my side (Snippet)
TTITLE13=Work it out (Snippet)
TTITLE14=I know what you might think (Snippet)
TTITLE15=Sunshine Down (Snippet)
TTITLE16=Takin' it back (Skit) (Snippet)
TTITLE17=No more Childish Play (Snippet)
TTITLE18=Interlude (Classic Mix) (Snippet)
TTITLE19=Takin' it back (Remix) (Snippet)
EXTD=
EXTT0=
EXTT1=
EXTT2=
EXTT3=
EXTT4=
EXTT5=
EXTT6=
EXTT7=
EXTT8=
EXTT9=
EXTT10=
EXTT11=
EXTT12=
EXTT13=
EXTT14=
EXTT15=
EXTT16=
EXTT17=
EXTT18=
EXTT19=
PLAYORDER=
